<svg width="32" height="33" viewBox="0 0 56 57" fill="none" xmlns="http://www.w3.org/2000/svg">
<path d="M38.8373 18.175C38.8373 17.9 38.6123 17.675 38.3373 17.675L34.2123 17.6937L27.9998 25.1L21.7936 17.7L17.6624 17.6812C17.3874 17.6812 17.1624 17.9 17.1624 18.1812C17.1624 18.3 17.2061 18.4125 17.2811 18.5062L25.4123 28.1937L17.2811 37.875C17.2056 37.9666 17.1637 38.0813 17.1624 38.2C17.1624 38.475 17.3874 38.7 17.6624 38.7L21.7936 38.6812L27.9998 31.275L34.2061 38.675L38.3311 38.6937C38.6061 38.6937 38.8311 38.475 38.8311 38.1937C38.8311 38.075 38.7873 37.9625 38.7123 37.8687L30.5936 28.1875L38.7248 18.5C38.7998 18.4125 38.8373 18.2937 38.8373 18.175Z" fill="#FF720C"/>
</svg>
