<svg width="24" height="24" viewBox="0 0 20 20" fill="none" xmlns="http://www.w3.org/2000/svg">
<path d="M10 0C7.6532 0.00681891 5.38356 0.838796 3.58834 2.35031C1.79312 3.86182 0.58668 5.95656 0.1802 8.2679C-0.226281 10.5792 0.193091 12.9599 1.36491 14.9932C2.53673 17.0265 4.38634 18.5829 6.59 19.39H6.65C8.81413 20.1763 11.1859 20.1763 13.35 19.39H13.41C15.6137 18.5829 17.4633 17.0265 18.6351 14.9932C19.8069 12.9599 20.2263 10.5792 19.8198 8.2679C19.4133 5.95656 18.2069 3.86182 16.4117 2.35031C14.6164 0.838796 12.3468 0.00681891 10 0V0ZM12 17.74C10.6892 18.0868 9.31079 18.0868 8 17.74V14H12V17.74ZM14 16.92V9C14.2652 9 14.5196 8.89464 14.7071 8.70711C14.8946 8.51957 15 8.26522 15 8C15 7.73478 14.8946 7.48043 14.7071 7.29289C14.5196 7.10536 14.2652 7 14 7H12C11.7348 7 11.4804 7.10536 11.2929 7.29289C11.1054 7.48043 11 7.73478 11 8C11 8.26522 11.1054 8.51957 11.2929 8.70711C11.4804 8.89464 11.7348 9 12 9V12H8V9C8.26522 9 8.51957 8.89464 8.70711 8.70711C8.89464 8.51957 9 8.26522 9 8C9 7.73478 8.89464 7.48043 8.70711 7.29289C8.51957 7.10536 8.26522 7 8 7H6C5.73478 7 5.48043 7.10536 5.29289 7.29289C5.10536 7.48043 5 7.73478 5 8C5 8.26522 5.10536 8.51957 5.29289 8.70711C5.48043 8.89464 5.73478 9 6 9V16.92C4.47487 16.0395 3.2829 14.6803 2.60896 13.0533C1.93503 11.4262 1.81679 9.62231 2.27259 7.92124C2.72839 6.22018 3.73275 4.71704 5.12991 3.64497C6.52706 2.5729 8.23893 1.9918 10 1.9918C11.7611 1.9918 13.4729 2.5729 14.8701 3.64497C16.2672 4.71704 17.2716 6.22018 17.7274 7.92124C18.1832 9.62231 18.065 11.4262 17.391 13.0533C16.7171 14.6803 15.5251 16.0395 14 16.92V16.92Z" stroke-width="1" fill="#7f7a7a"/>
</svg>
