<svg width="14" height="14" viewBox="0 0 14 14" fill="none" xmlns="http://www.w3.org/2000/svg">
<path d="M7 0C6.04545 0 5.29972 0.351326 4.76278 1.05398C4.22585 1.75663 3.95739 2.65483 3.95739 3.74858C3.95076 5.10748 4.38826 6.18466 5.26989 6.98011C5.38258 7.08617 5.42235 7.22206 5.3892 7.38778L5.16051 7.86506C5.08759 8.02415 4.97988 8.14844 4.83736 8.23793C4.69484 8.32742 4.39489 8.45502 3.9375 8.62074C3.91761 8.62737 3.49834 8.76326 2.67969 9.02841C1.86103 9.29356 1.42519 9.43939 1.37216 9.46591C0.815341 9.69792 0.450758 9.93987 0.278409 10.1918C0.092803 10.6094 0 11.6667 0 13.3636H14C14 11.6667 13.9072 10.6094 13.7216 10.1918C13.5492 9.93987 13.1847 9.69792 12.6278 9.46591C12.5748 9.43939 12.139 9.29356 11.3203 9.02841C10.5017 8.76326 10.0824 8.62737 10.0625 8.62074C9.60511 8.45502 9.30516 8.32742 9.16264 8.23793C9.02012 8.14844 8.91241 8.02415 8.83949 7.86506L8.6108 7.38778C8.57765 7.22206 8.61742 7.08617 8.73011 6.98011C9.61174 6.18466 10.0492 5.10748 10.0426 3.74858C10.0426 2.65483 9.77415 1.75663 9.23722 1.05398C8.70028 0.351326 7.95455 0 7 0Z" fill="#F3752B"/>
</svg>
