<svg width="101" height="28" viewBox="0 0 101 28" fill="none" xmlns="http://www.w3.org/2000/svg">
<path d="M8.81587 19.9004V21H0.673329V19.848L2.34897 19.5993C2.59333 19.5644 2.7766 19.4815 2.89878 19.3505C3.02969 19.2109 3.09515 19.0189 3.09515 18.7745V8.72073C3.09515 8.44146 3.03842 8.22764 2.92497 8.07927C2.81151 7.92218 2.61951 7.82618 2.34897 7.79127L0.476965 7.55564V6.48218C1.11406 6.29018 1.80787 6.13309 2.55842 6.01091C3.30897 5.88 3.99842 5.81018 4.62678 5.80145L4.98024 6.168L5.18969 8.49818C5.45151 8.17527 5.77442 7.848 6.15842 7.51636C6.54242 7.18473 6.95697 6.888 7.40206 6.62618C7.85587 6.35564 8.33151 6.13745 8.82896 5.97164C9.33515 5.79709 9.83697 5.70982 10.3344 5.70982C10.5875 5.70982 10.8755 5.74036 11.1984 5.80145C11.5213 5.85382 11.7919 5.93673 12.0101 6.05018C12.0624 6.76582 12.0581 7.56436 11.997 8.44582C11.9446 9.32727 11.8486 10.1127 11.709 10.8022H10.5701L10.2166 8.60291C10.173 8.33236 10.0857 8.136 9.95478 8.01382C9.82387 7.89164 9.63187 7.83055 9.37878 7.83055C8.66315 7.83055 7.94751 7.97891 7.23187 8.27564C6.51624 8.56364 5.85733 9.02182 5.25515 9.65018V18.7745C5.25515 19.0189 5.3206 19.2109 5.45151 19.3505C5.59115 19.4902 5.78315 19.5731 6.02751 19.5993L8.81587 19.9004ZM20.1911 7.04509C19.1264 7.04509 18.245 7.39418 17.5468 8.09236C16.8486 8.79055 16.3991 9.87273 16.1984 11.3389H23.5948C23.6035 11.2255 23.6122 11.1207 23.621 11.0247C23.6297 10.9287 23.634 10.824 23.634 10.7105C23.634 9.61964 23.3286 8.73818 22.7177 8.06618C22.1155 7.38545 21.2733 7.04509 20.1911 7.04509ZM25.8988 17.7535C25.5584 18.7658 24.8951 19.6124 23.909 20.2931C22.9315 20.9651 21.7053 21.3011 20.2304 21.3011C19.1482 21.3011 18.197 21.1091 17.3766 20.7251C16.565 20.3411 15.8886 19.8131 15.3475 19.1411C14.8151 18.4604 14.4137 17.6575 14.1431 16.7324C13.8813 15.8073 13.7504 14.8036 13.7504 13.7215C13.7504 12.4822 13.9162 11.3651 14.2479 10.3702C14.5882 9.37527 15.0551 8.53745 15.6486 7.85673C16.2508 7.16727 16.9751 6.63927 17.8217 6.27273C18.6682 5.89745 19.5977 5.70982 20.61 5.70982C21.3431 5.70982 22.0326 5.81455 22.6784 6.024C23.3242 6.23345 23.8871 6.552 24.3671 6.97964C24.8471 7.39855 25.2268 7.93527 25.506 8.58982C25.7853 9.24436 25.925 10.0124 25.925 10.8938C25.925 11.112 25.9119 11.3869 25.8857 11.7185C25.8682 12.0415 25.8377 12.3338 25.794 12.5956H16.0937C16.085 12.6829 16.0806 12.7745 16.0806 12.8705C16.0806 12.9665 16.0806 13.0625 16.0806 13.1585C16.0806 14.4065 16.2115 15.4495 16.4733 16.2873C16.7351 17.1251 17.0799 17.7927 17.5075 18.2902C17.9351 18.7789 18.4326 19.128 18.9999 19.3375C19.5671 19.5469 20.1519 19.6516 20.754 19.6516C21.6617 19.6516 22.4864 19.4378 23.2282 19.0102C23.9788 18.5825 24.5679 18.0109 24.9955 17.2953L25.8988 17.7535ZM28.6088 13.7215C28.6088 12.6218 28.7485 11.5833 29.0278 10.6058C29.3158 9.62836 29.7478 8.78182 30.3238 8.06618C30.9085 7.34182 31.6503 6.77018 32.5492 6.35127C33.4481 5.92364 34.4998 5.70982 35.7041 5.70982C36.4983 5.70982 37.3099 5.79709 38.139 5.97164C38.9681 6.13745 39.627 6.34255 40.1158 6.58691C40.1507 7.19782 40.1419 7.88727 40.0896 8.65527C40.0372 9.42327 39.963 10.1215 39.867 10.7498H38.715L38.2307 8.72073C38.1783 8.49382 38.1172 8.29746 38.0474 8.13164C37.9776 7.95709 37.851 7.79564 37.6678 7.64727C37.4234 7.45527 37.1005 7.29818 36.699 7.176C36.2976 7.04509 35.8481 6.97964 35.3507 6.97964C33.9543 6.97964 32.8852 7.50327 32.1434 8.55055C31.4016 9.58909 31.0307 11.1164 31.0307 13.1324C31.0307 15.3229 31.4496 16.9593 32.2874 18.0415C33.1252 19.1236 34.2467 19.6647 35.6518 19.6647C36.4896 19.6647 37.2401 19.4989 37.9034 19.1673C38.5754 18.8269 39.1296 18.4124 39.5659 17.9236L40.2859 18.6044C39.8408 19.4509 39.1601 20.1142 38.2438 20.5942C37.3361 21.0655 36.2888 21.3011 35.1019 21.3011C34.0459 21.3011 33.1121 21.1135 32.3005 20.7382C31.4888 20.3629 30.8081 19.8436 30.2583 19.1804C29.7172 18.5084 29.307 17.7055 29.0278 16.7716C28.7485 15.8378 28.6088 14.8211 28.6088 13.7215ZM47.1586 6.168V18.7484C47.1586 18.9927 47.2197 19.1891 47.3419 19.3375C47.4728 19.4771 47.6604 19.5644 47.9048 19.5993L49.5804 19.848V21H42.5768V19.848L44.2524 19.5993C44.4968 19.5644 44.68 19.4771 44.8022 19.3375C44.9331 19.1978 44.9986 19.0058 44.9986 18.7615V8.62909C44.9986 8.38473 44.9375 8.19273 44.8153 8.05309C44.6931 7.90473 44.5142 7.81745 44.2786 7.79127L42.3804 7.55564V6.48218C43.0611 6.264 43.7986 6.10255 44.5928 5.99782C45.3957 5.89309 46.1375 5.82764 46.8182 5.80145L47.1586 6.168ZM47.4597 1.76945C47.4597 2.27564 47.2939 2.69018 46.9622 3.01309C46.6393 3.336 46.2291 3.49746 45.7317 3.49746C45.2255 3.49746 44.8109 3.336 44.488 3.01309C44.1651 2.69018 44.0037 2.27564 44.0037 1.76945C44.0037 1.272 44.1651 0.86182 44.488 0.53891C44.8109 0.207273 45.2255 0.0414548 45.7317 0.0414548C46.2291 0.0414548 46.6393 0.207273 46.9622 0.53891C47.2939 0.86182 47.4597 1.272 47.4597 1.76945ZM58.7192 19.9396C60.2203 19.9396 61.4247 19.4553 62.3323 18.4865C63.2487 17.5178 63.7243 15.864 63.7592 13.5251C63.7854 11.5178 63.4451 9.99055 62.7381 8.94327C62.0312 7.88727 60.9316 7.35927 59.4392 7.35927C58.5752 7.35927 57.8291 7.51636 57.2007 7.83055C56.5723 8.136 56.0574 8.48073 55.656 8.86473V19.1935C55.9789 19.4029 56.4065 19.5818 56.9389 19.7302C57.4712 19.8698 58.0647 19.9396 58.7192 19.9396ZM58.6276 26.3411V27.4931H51.0741V26.3411L52.7629 26.0924C53.0072 26.0575 53.1905 25.9702 53.3127 25.8305C53.4349 25.6996 53.496 25.512 53.496 25.2676V8.64218C53.496 8.40655 53.4349 8.21455 53.3127 8.06618C53.1992 7.90909 53.0291 7.81745 52.8021 7.79127L50.8778 7.55564V6.48218C51.5585 6.27273 52.248 6.11127 52.9461 5.99782C53.6443 5.87564 54.3338 5.81018 55.0145 5.80145L55.4203 6.22036L55.5905 7.81745C56.0618 7.23273 56.6683 6.73527 57.4101 6.32509C58.1607 5.91491 59.0945 5.70982 60.2116 5.70982C61.0494 5.70982 61.8261 5.84946 62.5418 6.12873C63.2661 6.39927 63.8901 6.82255 64.4138 7.39855C64.9374 7.96582 65.3476 8.70327 65.6443 9.61091C65.9498 10.5098 66.1025 11.5833 66.1025 12.8313C66.1025 14.1316 65.9323 15.3098 65.592 16.3658C65.2603 17.4131 64.776 18.3033 64.1389 19.0364C63.5018 19.7607 62.7163 20.3193 61.7825 20.712C60.8574 21.1047 59.8058 21.3011 58.6276 21.3011C58.1738 21.3011 57.6763 21.2662 57.1352 21.1964C56.5941 21.1265 56.1011 21.0087 55.656 20.8429V25.2807C55.656 25.5251 55.7171 25.7127 55.8392 25.8436C55.9701 25.9833 56.1578 26.0662 56.4021 26.0924L58.6276 26.3411ZM75.1952 7.04509C74.1305 7.04509 73.249 7.39418 72.5508 8.09236C71.8527 8.79055 71.4032 9.87273 71.2025 11.3389H78.5988C78.6076 11.2255 78.6163 11.1207 78.625 11.0247C78.6337 10.9287 78.6381 10.824 78.6381 10.7105C78.6381 9.61964 78.3327 8.73818 77.7217 8.06618C77.1196 7.38545 76.2774 7.04509 75.1952 7.04509ZM80.9028 17.7535C80.5625 18.7658 79.8992 19.6124 78.913 20.2931C77.9356 20.9651 76.7094 21.3011 75.2345 21.3011C74.1523 21.3011 73.201 21.1091 72.3807 20.7251C71.569 20.3411 70.8927 19.8131 70.3516 19.1411C69.8192 18.4604 69.4177 17.6575 69.1472 16.7324C68.8854 15.8073 68.7545 14.8036 68.7545 13.7215C68.7545 12.4822 68.9203 11.3651 69.2519 10.3702C69.5923 9.37527 70.0592 8.53745 70.6527 7.85673C71.2548 7.16727 71.9792 6.63927 72.8257 6.27273C73.6723 5.89745 74.6017 5.70982 75.6141 5.70982C76.3472 5.70982 77.0367 5.81455 77.6825 6.024C78.3283 6.23345 78.8912 6.552 79.3712 6.97964C79.8512 7.39855 80.2308 7.93527 80.5101 8.58982C80.7894 9.24436 80.929 10.0124 80.929 10.8938C80.929 11.112 80.9159 11.3869 80.8897 11.7185C80.8723 12.0415 80.8417 12.3338 80.7981 12.5956H71.0977C71.089 12.6829 71.0847 12.7745 71.0847 12.8705C71.0847 12.9665 71.0847 13.0625 71.0847 13.1585C71.0847 14.4065 71.2156 15.4495 71.4774 16.2873C71.7392 17.1251 72.0839 17.7927 72.5116 18.2902C72.9392 18.7789 73.4367 19.128 74.0039 19.3375C74.5712 19.5469 75.1559 19.6516 75.7581 19.6516C76.6657 19.6516 77.4905 19.4378 78.2323 19.0102C78.9828 18.5825 79.5719 18.0109 79.9996 17.2953L80.9028 17.7535ZM83.8616 20.1622C83.7744 19.4553 83.7395 18.7658 83.7569 18.0938C83.7744 17.4218 83.8224 16.8022 83.9009 16.2349H85.1184L85.6027 18.2247C85.6725 18.5215 85.7555 18.7484 85.8515 18.9055C85.9475 19.0625 86.0915 19.2022 86.2835 19.3244C86.5278 19.4727 86.9075 19.6342 87.4224 19.8087C87.9373 19.9745 88.5351 20.0575 89.2158 20.0575C90.2282 20.0575 90.9918 19.8393 91.5067 19.4029C92.0216 18.9578 92.2791 18.3469 92.2791 17.5702C92.2791 17.1338 92.1918 16.7629 92.0173 16.4575C91.8515 16.152 91.5984 15.8815 91.258 15.6458C90.9264 15.4015 90.5031 15.1702 89.9882 14.952C89.482 14.7338 88.8885 14.4938 88.2078 14.232C87.6056 13.9964 87.0471 13.7564 86.5322 13.512C86.026 13.2589 85.5896 12.9709 85.2231 12.648C84.8653 12.3164 84.5816 11.9324 84.3722 11.496C84.1715 11.0509 84.0711 10.5229 84.0711 9.912C84.0711 9.19636 84.2107 8.57673 84.49 8.05309C84.7693 7.52073 85.1445 7.08436 85.6158 6.744C86.0958 6.39491 86.6587 6.13745 87.3045 5.97164C87.9504 5.79709 88.6355 5.70982 89.3598 5.70982C90.0929 5.70982 90.8478 5.79273 91.6245 5.95855C92.4013 6.12436 93.034 6.31636 93.5227 6.53455C93.5402 7.17164 93.5271 7.80436 93.4835 8.43273C93.4485 9.06109 93.3744 9.68073 93.2609 10.2916H92.1089L91.7162 8.52436C91.6638 8.28 91.5853 8.07491 91.4805 7.90909C91.3758 7.73455 91.2013 7.57745 90.9569 7.43782C90.7736 7.33309 90.5162 7.22836 90.1845 7.12364C89.8616 7.01018 89.4645 6.94909 88.9933 6.94036C88.1816 6.92291 87.4922 7.10182 86.9249 7.47709C86.3576 7.85236 86.074 8.44582 86.074 9.25746C86.074 9.73745 86.1744 10.1389 86.3751 10.4618C86.5845 10.776 86.8551 11.0465 87.1867 11.2735C87.5184 11.4916 87.898 11.6836 88.3256 11.8495C88.7533 12.0065 89.1853 12.168 89.6216 12.3338C90.2151 12.552 90.7911 12.792 91.3496 13.0538C91.9082 13.3156 92.4013 13.6255 92.8289 13.9833C93.2653 14.3411 93.6144 14.7687 93.8762 15.2662C94.1467 15.7549 94.282 16.3396 94.282 17.0204C94.282 17.6924 94.1467 18.2945 93.8762 18.8269C93.6144 19.3593 93.2391 19.8087 92.7504 20.1753C92.2704 20.5418 91.6856 20.8211 90.9962 21.0131C90.3155 21.2051 89.5605 21.3011 88.7315 21.3011C87.7191 21.3011 86.7853 21.1745 85.93 20.9215C85.0747 20.6684 84.3853 20.4153 83.8616 20.1622ZM100.677 19.5862C100.677 20.0836 100.515 20.4938 100.192 20.8167C99.8782 21.1309 99.4723 21.288 98.9749 21.288C98.4774 21.288 98.0672 21.1309 97.7443 20.8167C97.4302 20.4938 97.2731 20.0836 97.2731 19.5862C97.2731 19.0887 97.4302 18.6829 97.7443 18.3687C98.0672 18.0458 98.4774 17.8844 98.9749 17.8844C99.4723 17.8844 99.8782 18.0458 100.192 18.3687C100.515 18.6829 100.677 19.0887 100.677 19.5862Z" fill="#F3752B"/>
</svg>
