<svg width="24" height="24" viewBox="0 0 24 24" fill="none" xmlns="http://www.w3.org/2000/svg">
<path d="M15.9992 15.1663L16.0283 15.1943H16.0686H17.1112L23.8586 21.9553L21.9553 23.8586L15.1943 17.1112V16.0686V16.0283L15.1663 15.9992L14.7958 15.615L14.7303 15.547L14.6587 15.6086C13.1118 16.9384 11.1038 17.7388 8.91938 17.7388C7.17508 17.7388 5.46994 17.2215 4.0196 16.2524C2.56926 15.2833 1.43886 13.9059 0.771339 12.2944C0.103821 10.6829 -0.0708318 8.9096 0.269466 7.19881C0.609764 5.48802 1.44973 3.91655 2.68314 2.68314C3.91655 1.44973 5.48802 0.609764 7.19881 0.269466C8.9096 -0.0708318 10.6829 0.103821 12.2944 0.771339C13.9059 1.43886 15.2833 2.56926 16.2524 4.0196C17.2215 5.46994 17.7388 7.17508 17.7388 8.91938V8.91946C17.7403 11.0261 16.9842 13.063 15.6087 14.6585L15.5469 14.7302L15.615 14.7958L15.9992 15.1663ZM2.64443 8.91938C2.64443 12.3914 5.44735 15.1943 8.91938 15.1943C12.3914 15.1943 15.1943 12.3914 15.1943 8.91938C15.1943 5.44735 12.3914 2.64443 8.91938 2.64443C5.44735 2.64443 2.64443 5.44735 2.64443 8.91938Z" fill="#F3752B" stroke="white" stroke-width="0.2"/>
</svg>
